<svg width="393" height="281" viewBox="0 0 393 281" fill="none" xmlns="http://www.w3.org/2000/svg">
<path d="M285.247 101.65C252.719 75.1995 226.516 23.1257 217.481 0.395054C215.396 3.15028 206.847 9.90059 189.332 14.86C171.817 19.8194 156.318 29.3249 150.757 33.4578C130.74 50.8157 117.396 59.288 113.225 61.3545C103.842 66.1761 83.8254 76.026 78.8211 76.8526C73.8169 77.6792 64.2254 81.3299 60.0552 83.0519C56.58 84.4295 45.8764 89.8711 30.8637 100.616C15.8509 111.362 4.45233 114.737 0.629639 115.081C6.46794 136.572 32.9488 165.364 45.4594 177.074C45.4594 177.074 119.481 262.142 124.693 280.395C124.693 280.395 249.105 259.731 273.779 257.664C273.779 257.664 369.346 250.088 392.63 250.432L391.587 248.366C391.587 248.366 371.084 207.382 363.438 194.639C350.928 174.663 317.774 128.1 285.247 101.65Z" fill="white"/>
</svg>
