<svg enable-background="new 0 0 24 24" height="512" viewBox="0 0 24 24" width="512" xmlns="http://www.w3.org/2000/svg"><path d="m10 11c-.552 0-1 .448-1 1s.448 1 1 1h12c.552 0 1-.448 1-1s-.448-1-1-1z"/><path d="m16.589 15.32c-.477-.424-1.195-.48-1.779.12l-6.327 6.33c-.015.013-.1.086-.113.1-.239.238-.37.55-.37.88 0 .689.561 1.25 1.25 1.25h13.5c.689 0 1.25-.561 1.25-1.25 0-.351-.153-.698-.4-.92z"/><path d="m14.77 8.517c.013.015.087.101.102.115.238.237.55.368.878.368.31 0 .607-.114.85-.33l6.992-6.493c.26-.234.408-.572.408-.927 0-.689-.561-1.25-1.25-1.25h-13.5c-.689 0-1.25.561-1.25 1.25 0 .328.131.64.44.94z"/><path d="m6.537 13.057c-.28-.117-.603-.052-.817.163l-2.243 2.243c-.94-1.295-1.477-2.852-1.477-4.463 0-2.315 1.052-4.487 2.886-5.96.43-.346.499-.976.153-1.406s-.974-.498-1.406-.154c-2.309 1.855-3.633 4.596-3.633 7.52 0 2.143.749 4.208 2.052 5.887l-1.832 1.833c-.214.214-.279.537-.163.817s.39.463.693.463h5.5c.414 0 .75-.336.75-.75v-5.5c0-.303-.183-.577-.463-.693z"/></svg>