<svg width="280" height="280" viewBox="0 0 280 280" fill="none" xmlns="http://www.w3.org/2000/svg">
<path d="M9.66442 6.44507L16.4882 23.6319C23.0846 21.7223 42.5551 20.0513 67.6668 28.6448C92.7784 37.2382 100.876 58.9605 101.786 68.7474C102.923 86.8891 104.515 129.904 101.786 156.83C99.0563 183.756 87.9107 204.333 82.6791 211.255C72.307 227.869 50.1523 232.977 40.3715 233.455C31.5006 234.171 12.9398 235.603 9.66437 235.603C6.38894 235.603 3.29548 237.035 2.15818 237.752C0.520465 243.48 0.111064 256.371 0.111077 262.1C-1.52664 280.432 15.3509 281.196 23.9944 279.286C39.4617 277.615 88.6841 268.401 161.835 244.913C234.987 221.424 266.012 190.249 272.381 177.598C284.664 146.566 291.078 76.6247 218.473 45.1155C145.868 13.6063 89.9579 2.86448 71.0787 1.43224C64.4824 0.954825 46.786 0 28.7711 0C10.7562 0 8.52712 4.29671 9.66442 6.44507Z" fill="white"/>
</svg>
