<svg width="394" height="280" viewBox="0 0 394 280" fill="none" xmlns="http://www.w3.org/2000/svg">
<path d="M305.169 116.404C346.697 135.281 381.198 213.408 393.258 250.112C252.315 256.404 155.206 272.659 124.27 280C119.236 262.382 110.637 242.247 106.966 234.382C101.199 223.371 82.427 196.315 53.4831 176.18C24.5393 156.045 5.76779 121.648 0 106.966C8.80899 108.225 20.4494 100.15 25.1685 95.9551C39.0112 82.1124 62.397 73.4082 72.3596 70.7865C84.4195 69.2135 111.685 63.236 124.27 51.9101C136.854 40.5843 147.341 32.5094 151.011 29.8876C158.876 25.6929 177.124 16.9888 187.191 15.7303C197.258 14.4719 217.603 4.7191 226.517 0C235.431 30.9363 263.64 97.5281 305.169 116.404Z" fill="white"/>
</svg>
