<svg width="434" height="280" viewBox="0 0 434 280" fill="none" xmlns="http://www.w3.org/2000/svg">
<path d="M385.253 93.8148C361.458 93.8148 336.319 75.4261 326.725 66.2318C290.648 100.908 236.853 99.0687 214.465 93.8148C147.685 70.1722 96.4484 21.5736 79.1777 0.229667C67.6639 -2.92267 21.9285 27.1559 0.5 42.5893C2.41897 56.0524 18.7302 94.9969 68.6234 143.07C118.517 191.143 150.819 254.387 160.734 280C234.614 273.104 387.364 258.525 407.321 255.372C427.279 252.22 432.907 244.865 433.227 241.581C433.227 184.839 428.75 149.638 426.511 139.13C411.927 102.09 392.929 93.4864 385.253 93.8148Z" fill="white"/>
</svg>
