<svg width="550" height="194" viewBox="0 0 550 194" fill="none" xmlns="http://www.w3.org/2000/svg">
<path d="M419.1 0C377.74 7.72836 345.4 20.3943 334.4 25.7612C335.867 37.9262 337.04 66.7645 330 84.7973C322.96 102.83 272.8 106.623 248.6 106.265C236.133 106.265 196.68 106.48 138.6 107.338C80.52 108.197 52.8 98.3935 46.2 93.3844C44.7333 92.6688 41.58 90.3789 40.7 86.9441C39.82 83.5092 46.9333 79.7882 50.6 78.357L44 79.4304C36.08 82.8652 28.2333 90.1642 25.3 93.3844C9.46 110.559 1.83333 137.751 0 149.2C13.2 161.222 47.3 169.237 62.7 171.741C104.133 178.539 210.76 192.35 305.8 193.209C400.84 194.068 508.2 178.539 550 170.668C546.48 151.776 525.8 121.292 515.9 108.412C508.2 99.8247 485.54 77.2836 456.5 55.8159C427.46 34.3483 419.467 9.66045 419.1 0Z" fill="white"/>
</svg>
