<svg width="550" height="159" viewBox="0 0 550 159" fill="none" xmlns="http://www.w3.org/2000/svg">
<path d="M515.884 37.2169C540.696 33.4952 548.966 40.8352 550 44.9704C425.943 89.6307 308.074 118.371 265.171 128.709C242.427 132.844 180.622 146.697 111.15 156.621C41.6784 166.546 11.9048 140.08 5.70199 125.607C-1.01774 114.752 -7.32395 84.9787 21.2091 52.724C49.7421 20.4693 88.9232 4.13522 104.947 0C96.2632 14.8868 93.0584 26.8789 92.5415 31.0141C85.0981 66.9905 109.082 82.1874 122.005 85.2889C124.589 88.3903 153.329 91.8018 247.612 80.6367C341.895 69.4716 449.204 39.8015 491.073 26.362C500.998 36.2865 511.749 37.7338 515.884 37.2169Z" fill="white"/>
</svg>
