<svg width="447" height="281" viewBox="0 0 447 281" fill="none" xmlns="http://www.w3.org/2000/svg">
<path d="M73.2787 153.469C27.5528 121.813 5.37377 67.9775 0 45.0168C7.8164 38.666 27.2597 23.3263 42.5017 12.7742C57.7436 2.22205 69.3705 0.56107 73.2787 1.04959L112.849 45.0168C130.925 64.0693 178.8 103.054 225.698 106.571C272.597 110.088 307.771 94.3578 319.495 86.0529C328.289 95.8234 349.686 114.778 364.928 112.433C380.17 110.088 390.82 113.41 394.239 115.364C400.59 119.273 415.344 130.313 423.551 143.21C431.758 156.107 440.649 162.263 444.069 163.728C446.414 180.143 447 238.961 447 266.319L375.187 270.715C317.736 273.06 202.738 278.532 152.42 280.974C145.092 251.663 119.005 185.126 73.2787 153.469Z" fill="white"/>
</svg>
